<?xml version="1.0" encoding="UTF-8"?>
<svg id="Layer_1" data-name="Layer 1" xmlns="http://www.w3.org/2000/svg" viewBox="0 0 425.9 180.47">
  <defs>
    <style>
      .cls-1 {
        stroke: #000;
        stroke-miterlimit: 10;
        stroke-width: 3px;
      }

      .cls-2 {
        fill: #811939;
      }
    </style>
  </defs>
  <g>
    <path class="cls-1" d="M115.72,72.06c.24,2.61.9,4.61,2,6,2.01,2.52,5.5,3.78,10.47,3.78,2.96,0,5.56-.63,7.81-1.89,2.25-1.26,3.37-3.21,3.37-5.84,0-2-.9-3.52-2.69-4.56-1.15-.64-3.42-1.38-6.8-2.22l-6.32-1.56c-4.03-.98-7.01-2.09-8.92-3.3-3.42-2.11-5.12-5.04-5.12-8.78,0-4.4,1.61-7.97,4.82-10.69,3.21-2.72,7.54-4.08,12.97-4.08,7.1,0,12.23,2.06,15.37,6.17,1.97,2.61,2.92,5.42,2.86,8.43h-7.39c-.15-1.76-.79-3.36-1.91-4.8-1.84-2.04-5.03-3.07-9.56-3.07-3.02,0-5.32.56-6.87,1.69-1.56,1.13-2.33,2.61-2.33,4.46,0,2.02,1.02,3.64,3.07,4.85,1.18.72,2.92,1.36,5.22,1.91l5.27,1.26c5.73,1.36,9.56,2.68,11.51,3.95,3.04,2,4.56,5.14,4.56,9.43s-1.59,7.72-4.77,10.73c-3.18,3.01-8.03,4.52-14.54,4.52-7.01,0-11.97-1.57-14.89-4.72-2.92-3.14-4.48-7.03-4.69-11.67h7.52Z"/>
    <path class="cls-1" d="M184.32,41.4c3.08,1.55,5.43,3.56,7.04,6.02,1.55,2.35,2.59,5.08,3.11,8.21.46,2.14.69,5.56.69,10.26h-33.85c.14,4.74,1.25,8.54,3.32,11.4s5.27,4.29,9.62,4.29c4.05,0,7.29-1.35,9.7-4.06,1.35-1.57,2.31-3.39,2.87-5.46h7.69c-.2,1.71-.88,3.61-2.02,5.71-1.15,2.1-2.42,3.82-3.83,5.15-2.36,2.32-5.28,3.88-8.75,4.69-1.87.46-3.98.7-6.34.7-5.76,0-10.64-2.11-14.64-6.32-4-4.21-6-10.12-6-17.71s2.01-13.54,6.05-18.21c4.03-4.66,9.3-7,15.81-7,3.28,0,6.46.78,9.54,2.32ZM187.12,59.67c-.32-3.39-1.05-6.1-2.2-8.13-2.13-3.77-5.67-5.65-10.64-5.65-3.56,0-6.55,1.3-8.96,3.89s-3.69,5.89-3.83,9.89h25.64Z"/>
    <path class="cls-1" d="M205.07,40.12h7.74v6.61c1.85-2.29,3.53-3.95,5.04-5,2.58-1.77,5.5-2.65,8.78-2.65,3.71,0,6.69.91,8.95,2.74,1.27,1.04,2.43,2.58,3.48,4.61,1.74-2.49,3.78-4.34,6.13-5.54,2.35-1.2,4.98-1.8,7.91-1.8,6.26,0,10.52,2.26,12.78,6.78,1.22,2.43,1.82,5.71,1.82,9.82v30.98h-8.13v-32.33c0-3.1-.78-5.23-2.33-6.39-1.55-1.16-3.44-1.74-5.67-1.74-3.07,0-5.71,1.03-7.93,3.09-2.22,2.06-3.32,5.49-3.32,10.3v27.07h-7.95v-30.38c0-3.16-.38-5.46-1.13-6.91-1.19-2.17-3.4-3.26-6.65-3.26-2.96,0-5.64,1.15-8.06,3.43-2.42,2.29-3.63,6.43-3.63,12.43v24.68h-7.82v-46.54Z"/>
    <path class="cls-1" d="M279.42,22.82h7.82v63.84h-7.82V22.82Z"/>
    <path class="cls-1" d="M327.73,41.4c3.08,1.55,5.43,3.56,7.04,6.02,1.55,2.35,2.59,5.08,3.11,8.21.46,2.14.69,5.56.69,10.26h-33.85c.14,4.74,1.25,8.54,3.32,11.4s5.27,4.29,9.62,4.29c4.05,0,7.29-1.35,9.7-4.06,1.35-1.57,2.31-3.39,2.87-5.46h7.69c-.2,1.71-.88,3.61-2.02,5.71-1.15,2.1-2.42,3.82-3.83,5.15-2.36,2.32-5.28,3.88-8.75,4.69-1.87.46-3.98.7-6.34.7-5.76,0-10.64-2.11-14.64-6.32-4-4.21-6-10.12-6-17.71s2.01-13.54,6.05-18.21c4.03-4.66,9.3-7,15.81-7,3.28,0,6.46.78,9.54,2.32ZM330.53,59.67c-.32-3.39-1.05-6.1-2.2-8.13-2.13-3.77-5.67-5.65-10.64-5.65-3.56,0-6.55,1.3-8.96,3.89s-3.69,5.89-3.83,9.89h25.64Z"/>
  </g>
  <g>
    <path class="cls-2" d="M90.3,98.16h7.92v56h-9.6v-43.2l-9.84,7.84-5.52-7.04,17.04-13.6Z"/>
    <path class="cls-2" d="M152.78,126.16c0,15.2-6.72,28.96-20.96,28.96s-21.12-13.76-21.12-28.96,6.88-28.96,21.12-28.96,20.96,13.76,20.96,28.96ZM143.18,126.16c0-10.96-3.6-20-11.36-20s-11.52,9.04-11.52,20,3.76,20,11.52,20,11.36-9.04,11.36-20Z"/>
  </g>
  <circle cx="285.47" cy="111.64" r="10.49"/>
  <rect class="cls-2" x="50.7" y="39.61" width="46.34" height="46.34"/>
  <g>
    <path class="cls-2" d="M274.07,155.23c-.24,0-.45-.08-.64-.24-.19-.16-.28-.45-.28-.88,0-.36.09-.75.27-1.16s.42-.82.72-1.24c.3-.42.63-.82.98-1.2.45-.48.93-.86,1.44-1.16.51-.3.97-.44,1.37-.44.19,0,.35.03.47.09.12.06.22.15.3.25h.03l.77-.56h.14l-2.1,5.21c-.09.21-.11.36-.07.46s.09.14.16.14c.11,0,.27-.08.46-.23.19-.15.41-.37.66-.66.25-.29.5-.63.77-1.04l.23.14c-.59.92-1.1,1.57-1.53,1.94-.43.37-.78.56-1.06.56-.18,0-.33-.08-.44-.25-.11-.17-.11-.43.01-.78l.3-.83h-.09c-.23.3-.5.6-.81.89s-.65.52-1.01.71c-.36.19-.71.28-1.05.28ZM274.84,154.49c.25,0,.51-.1.8-.3s.57-.46.85-.79.54-.68.76-1.06c.23-.38.41-.75.55-1.12.14-.37.21-.68.21-.95,0-.24-.05-.42-.16-.54-.11-.12-.27-.18-.5-.18-.25,0-.53.09-.85.26-.32.18-.64.44-.95.78-.39.42-.71.9-.96,1.43s-.37,1.08-.37,1.63c0,.3.06.51.17.64s.26.19.44.19Z"/>
    <path class="cls-2" d="M280.54,155.25l1.99-4.98c.09-.24.13-.41.09-.5-.03-.09-.09-.14-.16-.14-.12,0-.27.1-.48.29s-.43.43-.67.72c-.24.29-.46.59-.67.89l-.23-.13c.57-.84,1.05-1.46,1.44-1.87.39-.41.76-.62,1.12-.62.28,0,.47.1.59.31s.1.49-.04.83l-1,2.43h.07c.13-.23.3-.5.51-.81.21-.31.44-.62.7-.94.26-.32.54-.62.83-.89s.59-.5.89-.67c.31-.17.6-.26.89-.26.3,0,.51.11.62.34.1.22.09.5-.04.84l-1.62,3.86c-.07.18-.09.32-.06.42.02.1.08.14.18.14.11,0,.27-.08.46-.23s.41-.37.65-.66c.24-.29.5-.63.77-1.04l.23.14c-.61.92-1.14,1.57-1.6,1.94-.46.37-.83.56-1.13.56-.25,0-.43-.1-.54-.3s-.09-.49.06-.86l1.56-3.69c.09-.22.13-.39.09-.52s-.13-.19-.29-.19c-.19,0-.46.14-.82.42s-.74.67-1.15,1.17c-.41.5-.82,1.08-1.21,1.74-.39.66-.73,1.37-1.02,2.13l-1,.13Z"/>
    <path class="cls-2" d="M289.41,155.22c-.24,0-.42-.09-.53-.28s-.12-.41-.03-.67l1.59-4c.09-.24.13-.41.09-.5-.03-.09-.09-.14-.16-.14-.12,0-.27.1-.48.29s-.43.43-.67.72c-.24.29-.46.59-.67.89l-.23-.13c.58-.84,1.07-1.46,1.47-1.87.4-.41.77-.62,1.12-.62.23,0,.42.1.56.29.15.19.15.48,0,.86l-1.53,3.85c-.09.21-.11.36-.07.46s.09.14.16.14c.11,0,.27-.08.46-.23.19-.15.41-.37.66-.66.25-.29.51-.63.77-1.04l.23.14c-.61.92-1.14,1.57-1.6,1.94-.46.37-.83.56-1.13.56ZM292.2,146.92c-.21,0-.4-.08-.56-.24s-.24-.35-.24-.56c0-.23.08-.42.24-.59s.35-.24.56-.24c.23,0,.42.08.59.24s.24.36.24.59c0,.21-.08.4-.24.56s-.36.24-.59.24Z"/>
    <path class="cls-2" d="M295.2,155.23c-.43,0-.76-.13-.98-.38-.22-.25-.34-.6-.34-1.04,0-.48.07-.91.21-1.29.14-.38.31-.73.52-1.04.2-.31.41-.59.62-.83.21-.24.39-.47.54-.68l-.03-.04c-.07,0-.13.02-.18.03-.05,0-.1.01-.15.01-.14,0-.27-.02-.39-.05s-.24-.07-.36-.11c-.14-.04-.28-.07-.42-.09-.13-.02-.25-.03-.36-.03-.23,0-.41.04-.54.11-.13.08-.2.17-.2.27,0,.1.04.16.11.2.07.04.15.08.24.11.13.04.23.09.3.16.07.07.1.17.1.3,0,.14-.05.26-.14.34-.1.09-.21.13-.34.13-.2,0-.36-.09-.48-.28-.12-.19-.18-.39-.18-.62,0-.3.08-.56.23-.79.15-.23.35-.41.6-.54s.51-.2.8-.2c.11,0,.23.01.34.04.11.02.21.05.31.08.13.04.29.08.46.12.18.04.35.06.52.06.12,0,.24-.01.34-.04.1-.03.21-.08.3-.14.07-.05.12-.09.15-.13s.08-.06.15-.06c.09,0,.14.05.14.14,0,.04-.03.08-.09.12-.06.04-.13.12-.21.22-.27.34-.52.65-.77.92s-.46.55-.64.82c-.18.28-.32.58-.43.91-.1.33-.16.72-.16,1.17s.1.81.29,1.03c.2.22.44.33.74.33s.59-.09.92-.27c.33-.18.64-.43.94-.75.3-.32.54-.7.72-1.13.19-.43.28-.91.28-1.42,0-.26-.05-.45-.15-.57-.1-.12-.2-.23-.31-.33-.1-.08-.18-.16-.26-.25s-.12-.22-.12-.38c0-.24.08-.42.24-.54s.32-.18.48-.18c.23,0,.42.1.56.3.14.2.21.49.21.87,0,.43-.07.89-.2,1.38-.13.49-.33.97-.58,1.44-.25.47-.55.9-.89,1.29-.34.39-.72.69-1.14.92-.42.23-.86.34-1.33.34Z"/>
    <path class="cls-2" d="M301.09,155.23c-.41,0-.71-.14-.89-.42-.19-.28-.28-.62-.28-1.03,0-.47.09-.95.26-1.44.17-.5.41-.97.72-1.43.31-.46.67-.85,1.07-1.17.3-.25.63-.45.98-.6s.7-.23,1.07-.23c.3,0,.53.08.69.24.15.16.23.35.23.58,0,.3-.14.63-.42.97-.28.34-.72.65-1.32.93s-1.38.47-2.33.57l.06-.33c.71-.06,1.29-.2,1.74-.42.45-.22.79-.47,1.01-.74.22-.27.33-.51.33-.72,0-.31-.17-.47-.5-.47-.21,0-.46.07-.74.22s-.57.37-.85.67c-.28.29-.52.67-.7,1.13-.19.46-.28,1-.28,1.63,0,.38.05.69.14.94.09.24.31.36.66.36.2,0,.43-.08.69-.24.26-.16.53-.38.79-.66.27-.28.5-.61.7-.98l.27.16c-.25.45-.55.86-.91,1.24s-.73.68-1.11.91c-.38.23-.73.34-1.06.34Z"/>
    <path class="cls-2" d="M305.44,155.25l1.99-4.98c.09-.24.13-.41.09-.5-.03-.09-.09-.14-.16-.14-.12,0-.27.1-.48.29s-.43.43-.67.72c-.24.29-.46.59-.67.89l-.23-.13c.57-.84,1.05-1.46,1.44-1.87.39-.41.76-.62,1.12-.62.28,0,.47.1.59.31s.1.49-.04.83l-1,2.43h.04c.15-.29.34-.63.57-1.03s.49-.8.77-1.19c.29-.39.59-.71.91-.97.32-.26.65-.39.99-.39.26,0,.46.07.59.21.14.14.21.32.21.54,0,.24-.07.43-.2.57-.13.14-.29.21-.47.21-.15,0-.27-.04-.36-.11-.09-.08-.15-.18-.17-.3,0-.11-.04-.2-.08-.25-.04-.05-.1-.08-.17-.08-.24,0-.51.15-.81.46-.31.31-.62.72-.94,1.24-.32.52-.64,1.1-.96,1.75s-.61,1.3-.89,1.98l-1.02.13Z"/>
    <path class="cls-2" d="M312.83,155.23c-.32,0-.63-.05-.92-.16s-.51-.29-.69-.54c-.17-.25-.26-.57-.26-.97,0-.28.07-.48.21-.61.14-.13.28-.19.44-.19s.29.05.41.15c.12.1.18.24.18.42,0,.09-.02.18-.06.25s-.09.14-.14.19c-.06.07-.11.13-.16.19-.05.06-.08.14-.08.24,0,.23.1.4.29.52s.45.18.75.18c.32,0,.61-.09.85-.28.24-.19.37-.48.37-.89,0-.31-.07-.58-.22-.83-.15-.25-.32-.49-.51-.73-.19-.26-.37-.52-.54-.8-.17-.28-.25-.59-.25-.94s.09-.63.28-.85.42-.39.71-.5c.29-.11.58-.16.89-.16.4,0,.76.1,1.08.29s.48.47.48.84c0,.2-.04.35-.12.46-.08.11-.21.16-.39.16s-.31-.05-.39-.14c-.08-.1-.12-.21-.12-.36,0-.02,0-.04,0-.08s.01-.07.02-.11c0-.03.02-.06.02-.09s0-.06,0-.08c0-.19-.07-.34-.21-.44-.14-.1-.31-.15-.5-.15-.22,0-.43.08-.63.23-.2.15-.3.39-.3.71,0,.28.08.53.23.77s.32.48.5.71c.2.26.39.53.56.82s.26.62.26,1-.1.7-.3.96c-.2.26-.46.46-.76.59-.31.13-.63.2-.97.2Z"/>
    <path class="cls-2" d="M317.06,155.23c-.24,0-.45-.08-.64-.24-.19-.16-.28-.45-.28-.88,0-.36.09-.75.27-1.16.18-.41.42-.82.72-1.24.3-.42.63-.82.98-1.2.45-.48.93-.86,1.44-1.16.51-.3.96-.44,1.37-.44.19,0,.35.03.47.09.12.06.22.15.3.25h.03l.77-.56h.14l-2.1,5.21c-.09.21-.11.36-.07.46s.09.14.16.14c.11,0,.27-.08.46-.23.19-.15.41-.37.66-.66.25-.29.5-.63.77-1.04l.23.14c-.59.92-1.1,1.57-1.53,1.94-.43.37-.78.56-1.06.56-.18,0-.33-.08-.44-.25-.11-.17-.11-.43.01-.78l.3-.83h-.09c-.23.3-.5.6-.82.89-.31.29-.65.52-1.01.71-.36.19-.71.28-1.05.28ZM317.84,154.49c.25,0,.51-.1.8-.3.29-.2.57-.46.85-.79s.54-.68.76-1.06c.23-.38.41-.75.55-1.12.14-.37.21-.68.21-.95,0-.24-.05-.42-.16-.54-.1-.12-.27-.18-.5-.18-.25,0-.53.09-.85.26-.32.18-.64.44-.95.78-.39.42-.71.9-.96,1.43-.25.53-.37,1.08-.37,1.63,0,.3.06.51.17.64.11.13.26.19.44.19Z"/>
    <path class="cls-2" d="M323.54,155.25l1.99-4.98c.09-.24.13-.41.09-.5-.03-.09-.09-.14-.16-.14-.12,0-.27.1-.48.29s-.43.43-.67.72c-.24.29-.46.59-.67.89l-.23-.13c.57-.84,1.05-1.46,1.44-1.87.39-.41.76-.62,1.12-.62.28,0,.47.1.59.31s.1.49-.04.83l-1,2.43h.04c.15-.29.34-.63.57-1.03s.49-.8.77-1.19c.29-.39.59-.71.91-.97.32-.26.65-.39.99-.39.26,0,.46.07.59.21.14.14.21.32.21.54,0,.24-.07.43-.2.57-.13.14-.29.21-.47.21-.15,0-.27-.04-.36-.11-.09-.08-.15-.18-.17-.3,0-.11-.04-.2-.08-.25-.04-.05-.1-.08-.17-.08-.24,0-.51.15-.81.46-.31.31-.62.72-.94,1.24-.32.52-.64,1.1-.96,1.75s-.61,1.3-.89,1.98l-1.02.13Z"/>
    <path class="cls-2" d="M330.56,155.22c-.24,0-.42-.09-.53-.28s-.12-.41-.03-.67l1.59-4c.09-.24.13-.41.09-.5-.03-.09-.09-.14-.16-.14-.12,0-.27.1-.48.29s-.43.43-.67.72c-.24.29-.46.59-.67.89l-.23-.13c.58-.84,1.07-1.46,1.47-1.87.4-.41.77-.62,1.12-.62.23,0,.42.1.56.29.15.19.15.48,0,.86l-1.53,3.85c-.09.21-.11.36-.07.46s.09.14.16.14c.11,0,.27-.08.46-.23.19-.15.41-.37.66-.66.25-.29.51-.63.77-1.04l.23.14c-.61.92-1.14,1.57-1.6,1.94-.46.37-.83.56-1.13.56ZM333.35,146.92c-.21,0-.4-.08-.56-.24s-.24-.35-.24-.56c0-.23.08-.42.24-.59s.35-.24.56-.24c.23,0,.42.08.59.24s.24.36.24.59c0,.21-.08.4-.24.56s-.36.24-.59.24Z"/>
    <path class="cls-2" d="M335.9,155.22c-.54,0-.96-.19-1.25-.57-.29-.38-.44-.87-.44-1.46,0-.42.08-.87.24-1.37s.4-.96.7-1.4c.3-.44.67-.81,1.08-1.09.42-.28.87-.42,1.37-.42.54,0,.96.19,1.25.57.29.38.44.87.44,1.46,0,.42-.08.88-.24,1.37s-.4.96-.7,1.4c-.3.44-.66.81-1.07,1.09s-.87.42-1.37.42ZM335.8,154.93c.27,0,.53-.11.78-.32.25-.21.49-.5.72-.85.23-.35.43-.74.6-1.15.17-.42.31-.82.41-1.22.1-.4.15-.76.15-1.07,0-.71-.25-1.07-.76-1.07-.27,0-.53.11-.78.32s-.49.49-.72.84c-.23.34-.43.72-.6,1.13-.17.41-.31.81-.41,1.21-.1.4-.15.76-.15,1.07,0,.34.07.62.2.82.13.2.32.3.56.3Z"/>
  </g>
  <g>
    <path class="cls-2" d="M160.76,153.89l-5.7-2.56,23.77-53.37,5.7,2.56-23.77,53.37Z"/>
    <path class="cls-2" d="M207.74,97.34h8v56.55h-9.69v-43.63l-9.94,7.92-5.57-7.11,17.21-13.73Z"/>
    <path class="cls-2" d="M249.1,127.56c2.1-2.75,6.54-7.03,6.54-13.41,0-4.52-3.07-8.73-8.4-8.73-8.32,0-10.1,8.24-10.1,8.24l-8.64-3.15s3.64-14.14,18.74-14.14c12.2,0,18.1,8.24,18.1,17.61,0,7.03-3.55,12.04-4.93,13.9l-13.01,16.8h18.18v9.21h-37.24l20.76-26.34Z"/>
  </g>
</svg>